<svg width="50.000000" height="50.000000" viewBox="0 0 50 50" fill="none" xmlns="http://www.w3.org/2000/svg"
     xmlns:xlink="http://www.w3.org/1999/xlink">
    <g id="code">
        <desc>
            Created with Pixso.
        </desc>
        <defs>
            <clipPath id="clip20_1838">
                <rect width="50.000000" height="50.000000" fill="white" fill-opacity="0"/>
            </clipPath>
        </defs>
        <rect width="50.000000" height="50.000000" fill="#FFFFFF" fill-opacity="0"/>
        <g clip-path="url(#clip20_1838)">
            <path d="M18.31 42.06L27.26 6.68L31.43 7.87L22.48 43.31L18.31 42.06Z" fill="#7572D5" fill-opacity="1.000000"
                  fill-rule="evenodd"/>
            <path d="M13.5 12.68L16.56 15.92L7.99 25L16.56 34.07L13.5 37.31L1.87 25L13.5 12.68Z" fill="#7572D5"
                  fill-opacity="1.000000" fill-rule="evenodd"/>
            <path d="M36.49 12.68L33.43 15.92L42 25L33.43 34.07L36.49 37.31L48.12 25L36.49 12.68Z" fill="#7572D5"
                  fill-opacity="1.000000" fill-rule="evenodd"/>
        </g>
    </g>
    <g id="css">
        <desc>
            Created with Pixso.
        </desc>
        <defs/>
        <path id="Vector"
              d="M32.05 7.84L6.94 7.83L7.35 12.75L26.63 12.75L26.15 17.85L13.5 17.85L13.96 22.67L25.73 22.67L25.03 29.28L19.49 30.78L13.86 29.27L13.5 25.31L8.53 25.31L9.08 32.54L19.49 35.73L29.73 32.86L32.04 7.84L32.05 7.84ZM-0.51 -0.44L39.49 -0.44L35.86 39.99L19.45 44.56L3.13 39.99L-0.51 -0.44Z"
              fill="#7572D5" fill-opacity="1.000000" fill-rule="nonzero"/>
    </g>
    <g id="react">
        <desc>
            Created with Pixso.
        </desc>
        <defs/>
        <path id="Vector"
              d="M44.81 20C44.81 17.08 41.68 14.37 36.47 12.5L35.54 12.18L35.54 11.77C36.68 6.04 35.85 1.77 33.25 0.2C30.64 -1.36 26.79 0.1 22.62 3.75L22 4.37L21.79 4.16L21.58 4.16C17.31 0.2 13.14 -1.15 10.54 0.31C7.93 1.77 7.2 5.83 8.25 11.14C8.35 11.48 8.42 11.83 8.45 12.18L7.31 12.6C2.2 14.37 -0.82 17.08 -0.82 20C-0.82 22.91 2.52 25.83 7.72 27.7L8.45 27.91C8.32 28.28 8.25 28.67 8.25 29.06C7.2 34.27 8.14 38.22 10.54 39.68C12.93 41.14 17.31 39.79 21.47 36.14L22.1 35.62L22.93 36.45C25.85 38.95 28.77 40.31 31.06 40.31C31.87 40.33 32.66 40.11 33.35 39.68C35.95 38.22 36.89 33.95 35.75 28.54L35.75 28.33C35.7 28.16 35.67 27.98 35.64 27.81L35.95 27.81C41.47 25.83 44.81 23.02 44.81 20ZM41.79 20C41.79 21.25 39.5 23.43 35.02 24.89L34.81 24.89C34.26 23.22 33.6 21.58 32.83 20C33.56 18.33 34.18 16.66 34.7 15.1L35.54 15.31C39.7 16.77 41.79 18.75 41.79 20ZM24.91 34.16L24.08 33.54C25.27 32.22 26.38 30.82 27.41 29.37L32.72 28.54C32.83 28.75 32.83 28.95 32.93 29.06C33.3 30.94 33.37 32.88 33.14 34.79C32.99 35.7 32.56 36.54 31.89 37.18C30.85 37.81 28.04 36.97 24.91 34.16ZM23.56 29.58L22.1 31.45L20.43 29.58L23.56 29.58ZM9.29 15C9.81 16.71 10.47 18.38 11.27 20C10.47 21.64 9.81 23.35 9.29 25.1L8.66 24.89C6.84 24.32 5.14 23.4 3.66 22.18C3.28 21.94 2.95 21.62 2.7 21.24C2.45 20.87 2.28 20.44 2.2 20C2.2 18.75 4.29 16.77 8.25 15.41L9.29 15ZM20.43 10.41L22 8.64L23.56 10.41L20.43 10.41ZM31.89 2.81C33.04 3.43 33.66 6.56 32.72 11.14C32.73 11.2 32.72 11.25 32.7 11.31C32.69 11.36 32.66 11.41 32.62 11.45L27.41 10.62C26.38 9.17 25.27 7.77 24.08 6.45L24.7 5.93C28.04 3.02 30.75 2.18 31.89 2.81ZM14.5 13.85L13.66 15.2L12.93 16.56C12.62 15.83 12.41 15.1 12.1 14.27L14.5 13.85ZM12.1 25.72C12.41 25 12.62 24.27 12.93 23.43L13.66 24.79L14.5 26.14L12.1 25.72ZM29.5 20C28.96 21.14 28.37 22.25 27.72 23.33C27.1 24.47 26.37 25.52 25.75 26.56L18.25 26.56C17.52 25.41 16.79 24.37 16.27 23.33C15.61 22.25 15.02 21.14 14.5 20C15 18.84 15.59 17.73 16.27 16.66C16.86 15.58 17.53 14.54 18.25 13.54C20.74 13.33 23.25 13.33 25.75 13.54C26.47 14.58 27.1 15.62 27.72 16.66C28.4 17.73 28.99 18.84 29.5 20ZM30.33 15.2L29.5 13.85L31.89 14.37C31.66 15.12 31.38 15.85 31.06 16.56L30.33 15.2ZM29.5 26.14L30.33 24.79L31.06 23.33L32 25.72L29.5 26.14ZM19.81 6.35L19.91 6.35L16.58 10.52L11.37 11.35C11.27 11.04 11.27 10.83 11.16 10.52C10.33 6.25 10.95 3.33 12 2.81C12.27 2.63 12.61 2.55 12.93 2.6C14.39 2.6 16.89 3.64 19.7 6.14L19.81 6.35ZM11.16 29.58C11.18 29.26 11.25 28.94 11.37 28.64L16.68 29.37C17.68 30.84 18.8 32.24 20.02 33.54L19.81 33.75L19.6 33.95C18.18 35.27 16.52 36.29 14.7 36.97C14.31 37.18 13.87 37.31 13.42 37.34C12.98 37.38 12.52 37.32 12.1 37.18C10.95 36.56 10.33 33.75 11.16 29.58Z"
              fill="#7572D5" fill-opacity="1.000000" fill-rule="nonzero"/>
        <path id="Vector"
              d="M22 15.41C21.08 15.39 20.19 15.64 19.42 16.13C18.65 16.62 18.05 17.33 17.69 18.17C17.32 19 17.22 19.93 17.38 20.82C17.55 21.72 17.98 22.55 18.61 23.2C19.25 23.85 20.07 24.3 20.96 24.48C21.85 24.67 22.78 24.58 23.62 24.24C24.46 23.89 25.19 23.31 25.69 22.55C26.2 21.8 26.47 20.91 26.47 20C26.47 18.8 26.01 17.65 25.17 16.79C24.33 15.93 23.19 15.44 22 15.41Z"
              fill="#7572D5" fill-opacity="1.000000" fill-rule="nonzero"/>
    </g>
    <g id="sc">
        <desc>
            Created with Pixso.
        </desc>
        <defs/>
        <path id="Vector"
              d="M30.25 -0.75L29.98 0.64C29.57 3.3 29.72 4.06 30.86 5.04L31.97 5.95L30.82 11.03C30.14 14.05 29.3 16.59 28.77 17.43C28.31 18.15 27.77 19.2 27.66 19.77C27.47 20.45 26.82 21.14 25.83 21.74C24.95 22.24 23.23 23.56 22.02 24.62C21.04 25.49 20.37 26.03 20.01 26.26L18.82 27.19C18.44 27.8 18.22 28.29 18.14 28.66C18.05 29.05 18.1 29.3 18.22 29.49C18.34 29.66 18.55 29.79 18.83 29.87C19.16 29.95 19.5 29.97 19.85 29.95C20.62 29.9 21.38 29.76 22.12 29.55C22.38 29.48 22.57 29.42 22.75 29.36C23.01 29.03 23.63 28.42 24.72 27.35C27.62 24.51 28.73 22.96 27.58 23.38C27.16 23.53 27.35 23.15 28.08 22.39C29.61 20.91 30.48 18.68 32.31 11.67C33.76 6.14 33.76 6.06 34.83 6.06C35.33 6.06 36.75 6.15 36.75 6.15L36.75 -0.75L33.49 -0.75L30.25 -0.75ZM17.42 11.08C16.36 11.07 14.1 12.66 7.33 18.16C7.03 18.85 7.01 19.32 7.14 19.63C7.23 19.84 7.39 19.99 7.61 20.1C7.82 20.2 8.1 20.27 8.41 20.29C9.03 20.35 9.76 20.25 10.35 20.14L10.74 20.05C10.88 19.87 11.06 19.72 11.26 19.62C11.68 19.39 13.43 17.81 15.19 16.1C18.28 12.99 19 11.59 17.74 11.14C17.64 11.1 17.53 11.08 17.42 11.08ZM25.33 13.23C24.4 13.26 22.74 14.33 19.88 16.59C18.44 17.75 17.54 18.37 17.05 18.5L15.16 19.98C14.45 21.27 14.35 22.07 14.53 22.51C14.58 22.62 14.65 22.72 14.73 22.8C14.82 22.88 14.92 22.95 15.03 22.99C15.31 23.1 15.6 23.15 15.9 23.15C16.6 23.14 17.31 23.04 17.99 22.85C18.34 22.75 18.69 22.64 19.03 22.52L19.14 22.47L19.33 22.37C19.69 21.91 20.52 21.04 21.56 20.04C24.84 16.9 26.51 14.66 26.17 13.83C26.02 13.42 25.75 13.22 25.33 13.23ZM16.59 17.1C16.33 17.13 15.73 17.59 14.65 18.52C13.1 19.89 11.4 20.68 10.81 20.33C10.67 20.36 10.54 20.39 10.4 20.41C9.8 20.53 9.06 20.63 8.39 20.58C8.07 20.56 7.77 20.48 7.48 20.35C7.21 20.23 6.99 20.01 6.87 19.74C6.74 19.42 6.74 19.02 6.89 18.51L4.55 20.42L-0.75 24.77L-0.75 31.84L16.62 18.25C16.62 18.1 16.64 17.95 16.68 17.81C16.81 17.33 16.8 17.08 16.59 17.1L16.59 17.1ZM24.07 19.39C23.81 19.39 23.37 19.76 22.66 20.5C21.71 21.51 20.21 22.49 19.41 22.69L19.29 22.76C19.16 22.81 19.02 22.86 18.89 22.91C18.67 22.98 18.39 23.06 18.07 23.15C17.42 23.33 16.61 23.49 15.89 23.47C15.55 23.47 15.22 23.4 14.9 23.27C14.6 23.15 14.37 22.92 14.24 22.63C14.03 22.13 14.11 21.44 14.57 20.44L-0.75 32.43L-0.75 36.75L5.98 36.75L20.26 25.61C20.63 25.2 21.19 24.64 21.94 23.94C23.96 22.08 24.42 21.44 24.42 20.49C24.42 19.76 24.33 19.38 24.07 19.38L24.07 19.39ZM27.47 26.37L26.25 27.58C25.56 28.22 24.34 29.02 23.5 29.36L23.34 29.43L23.33 29.45L23.29 29.48C23.26 29.51 23.24 29.51 23.22 29.52C22.89 29.65 22.55 29.76 22.2 29.85C21.44 30.08 20.65 30.21 19.86 30.27C19.48 30.29 19.11 30.26 18.74 30.17C18.43 30.1 18.15 29.92 17.96 29.65C17.78 29.39 17.73 29.03 17.83 28.6C17.91 28.29 18.02 27.99 18.17 27.7L6.65 36.75L21.98 36.75L23.81 34.66C26.32 31.75 27.47 29.66 27.47 27.88L27.47 26.37Z"
              fill="#7572D5" fill-opacity="1.000000" fill-rule="nonzero"/>
    </g>

    <g id="ts">
        <desc>
            Created with Pixso.
        </desc>
        <defs/>
        <path id="Vector"
              d="M0 20L0 40L40 40L40 0L0 0L0 20ZM32.23 18.4C33.25 18.66 34.02 19.11 34.73 19.84C35.1 20.24 35.65 20.95 35.69 21.13C35.7 21.18 33.96 22.34 32.91 23C32.87 23.02 32.72 22.86 32.55 22.61C32.03 21.86 31.49 21.53 30.67 21.48C29.46 21.39 28.68 22.03 28.68 23.09C28.67 23.35 28.73 23.61 28.85 23.84C29.12 24.39 29.62 24.72 31.17 25.39C34.03 26.63 35.26 27.44 36.02 28.59C36.87 29.88 37.06 31.94 36.48 33.47C35.85 35.13 34.28 36.26 32.06 36.64C31.37 36.76 29.75 36.74 29.01 36.61C27.41 36.32 25.88 35.53 24.94 34.48C24.57 34.08 23.86 33.02 23.9 32.94C23.92 32.91 24.08 32.81 24.27 32.71C24.45 32.61 25.12 32.22 25.75 31.85L26.9 31.18L27.15 31.54C27.48 32.05 28.22 32.76 28.66 32.99C29.94 33.66 31.69 33.57 32.55 32.8C32.73 32.65 32.86 32.46 32.95 32.26C33.05 32.05 33.09 31.82 33.08 31.6C33.08 31.13 33.02 30.93 32.78 30.58C32.47 30.14 31.83 29.76 30.03 28.98C27.96 28.09 27.08 27.54 26.26 26.66C25.75 26.08 25.38 25.4 25.16 24.66C25.01 24.1 24.97 22.68 25.09 22.11C25.52 20.12 27.02 18.73 29.2 18.31C29.9 18.18 31.54 18.23 32.23 18.4ZM22.84 20.07L22.85 21.71L17.65 21.71L17.65 36.5L13.96 36.5L13.96 21.71L8.76 21.71L8.76 20.1C8.76 19.21 8.78 18.47 8.8 18.45C8.82 18.43 11.99 18.41 15.83 18.42L22.82 18.44L22.84 20.07Z"
              fill="#7572D5" fill-opacity="1.000000" fill-rule="nonzero"/>
    </g>
    <g id="wb">
        <desc>
            Created with Pixso.
        </desc>
        <defs>
            <clipPath id="clip20_1881">
                <rect width="50.000000" height="50.000000" fill="white" fill-opacity="0"/>
            </clipPath>
        </defs>
        <rect width="50.000000" height="50.000000" fill="#FFFFFF" fill-opacity="0"/>
        <g clip-path="url(#clip20_1881)">
            <path d="M17.7 4.16C14.25 4.16 11.45 6.96 11.45 10.41C11.45 13.86 14.25 16.66 17.7 16.66L32.29 16.66C35.74 16.66 38.54 13.86 38.54 10.41C38.54 6.96 35.74 4.16 32.29 4.16L17.7 4.16Z"
                  fill="#7572D5" fill-opacity="1.000000" fill-rule="nonzero"/>
            <path d="M32.29 18.75C28.83 18.75 26.04 21.54 26.04 25C26.04 28.45 28.83 31.25 32.29 31.25C35.74 31.25 38.54 28.45 38.54 25C38.54 21.54 35.74 18.75 32.29 18.75Z"
                  fill="#7572D5" fill-opacity="1.000000" fill-rule="nonzero"/>
            <path d="M11.45 25C11.45 21.54 14.25 18.75 17.7 18.75L23.95 18.75L23.95 31.25L17.7 31.25C14.25 31.25 11.45 28.45 11.45 25Z"
                  fill="#7572D5" fill-opacity="1.000000" fill-rule="nonzero"/>
            <path d="M17.7 33.33C14.25 33.33 11.45 36.13 11.45 39.58C11.45 43.03 14.25 45.83 17.7 45.83C21.16 45.83 23.95 43.03 23.95 39.58L23.95 33.33L17.7 33.33Z"
                  fill="#7572D5" fill-opacity="1.000000" fill-rule="nonzero"/>
        </g>
    </g>


    <!--    social-->

    <g id="instagram">
        <desc>
            Created with Pixso.
        </desc>
        <defs>
            <clipPath id="clip20_2002">
                <rect width="21.000000" height="21.000000" fill="white" fill-opacity="0"/>
            </clipPath>
        </defs>
        <rect width="21.000000" height="21.000000" fill="#FFFFFF" fill-opacity="0"/>
        <g clip-path="url(#clip20_2002)">
            <path d="M15.65 2.1L5.34 2.1C3.55 2.1 2.09 3.55 2.09 5.34L2.09 8.77L2.09 15.65C2.09 17.44 3.55 18.9 5.34 18.9L15.65 18.9C17.44 18.9 18.9 17.44 18.9 15.65L18.9 8.77L18.9 5.34C18.89 3.55 17.43 2.1 15.65 2.1ZM16.58 4.03L16.95 4.03L16.95 4.4L16.95 6.88L14.11 6.88L14.1 4.04L16.58 4.03ZM8.09 8.77C8.63 8.03 9.5 7.53 10.49 7.53C11.47 7.53 12.35 8.02 12.88 8.77C13.24 9.25 13.44 9.85 13.44 10.49C13.44 12.12 12.12 13.45 10.48 13.45C8.85 13.45 7.54 12.12 7.54 10.49C7.54 9.85 7.75 9.25 8.09 8.77ZM17.25 15.64C17.25 16.53 16.53 17.25 15.65 17.25L5.34 17.25C4.46 17.25 3.74 16.53 3.74 15.64L3.74 8.77L6.24 8.77C6.03 9.3 5.9 9.88 5.9 10.49C5.9 13.02 7.96 15.08 10.5 15.08C13.03 15.08 15.09 13.02 15.09 10.49C15.09 9.88 14.96 9.3 14.75 8.77L17.25 8.77L17.25 15.64Z"
                  fill="#7572D5" fill-opacity="1.000000" fill-rule="nonzero"/>
        </g>
    </g>

    <g id="linkedin">
        <desc>
            Created with Pixso.
        </desc>
        <defs>
            <clipPath id="clip20_1987">
                <rect width="20.999998" height="20.999998" transform="translate(0.000000 -0.999512)" fill="white"
                      fill-opacity="0"/>
            </clipPath>
        </defs>
        <rect width="20.999998" height="20.999998" transform="translate(0.000000 -0.999512)" fill="#FFFFFF"
              fill-opacity="0"/>
        <g clip-path="url(#clip20_1987)">
            <path d="M2.53 6.88L5.8 6.88L5.8 17.36L2.53 17.36L2.53 6.88Z" fill="#7572D5" fill-opacity="1.000000"
                  fill-rule="evenodd"/>
            <path d="M4.1 1.94C2.89 1.94 2.09 2.72 2.09 3.75C2.09 4.77 2.86 5.57 4.05 5.57L4.08 5.57C5.31 5.57 6.08 4.76 6.07 3.75C6.04 2.72 5.3 1.94 4.1 1.94Z"
                  fill="#7572D5" fill-opacity="1.000000" fill-rule="nonzero"/>
            <path d="M14.74 6.78C12.87 6.78 11.69 7.81 11.48 8.53L11.48 6.88L7.8 6.88C7.84 7.75 7.8 17.36 7.8 17.36L11.48 17.36L11.48 11.7C11.48 11.38 11.46 11.06 11.55 10.84C11.8 10.21 12.35 9.55 13.33 9.55C14.6 9.55 15.18 10.52 15.18 11.94L15.18 17.36L18.9 17.36L18.9 11.53C18.9 8.29 17.07 6.78 14.74 6.78Z"
                  fill="#7572D5" fill-opacity="1.000000" fill-rule="nonzero"/>
        </g>
    </g>
    <g id="telegram">
        <desc>
            Created with Pixso.
        </desc>
        <defs>
            <clipPath id="clip20_1998">
                <rect width="21.000000" height="21.000000" fill="white" fill-opacity="0"/>
            </clipPath>
        </defs>
        <rect width="21.000000" height="21.000000" fill="#FFFFFF" fill-opacity="0"/>
        <g clip-path="url(#clip20_1998)">
            <path d="M18.9 4.76L16.37 16.72C16.17 17.56 15.68 17.77 14.97 17.37L11.1 14.53L9.24 16.32C9.03 16.53 8.86 16.7 8.46 16.7L8.74 12.76L15.9 6.29C16.21 6.02 15.83 5.86 15.42 6.14L6.57 11.71L2.76 10.52C1.93 10.26 1.91 9.69 2.93 9.29L17.83 3.55C18.52 3.29 19.13 3.71 18.9 4.76Z"
                  fill="#1F1F20" fill-opacity="1.000000" fill-rule="nonzero"/>
        </g>
    </g>
    <g id="vk">
        <desc>
            Created with Pixso.
        </desc>
        <defs>
            <clipPath id="clip20_1994">
                <rect width="20.999998" height="20.999998" transform="translate(-0.999939 -0.999512)" fill="white"
                      fill-opacity="0"/>
            </clipPath>
        </defs>
        <rect width="20.999998" height="20.999998" transform="translate(-0.999939 -0.999512)" fill="#FFFFFF"
              fill-opacity="0"/>
        <g clip-path="url(#clip20_1994)">
            <path d="M17.16 12.99C16.8 12.53 16.38 12.13 15.98 11.73C15.84 11.59 15.69 11.45 15.55 11.3C15.14 10.89 15.12 10.73 15.45 10.26C15.67 9.94 15.91 9.61 16.14 9.3C16.35 9.01 16.56 8.72 16.77 8.42L16.81 8.36C17.21 7.8 17.61 7.21 17.83 6.51C17.89 6.32 17.95 6.04 17.81 5.82C17.68 5.59 17.41 5.52 17.23 5.48C17.14 5.47 17.05 5.47 16.96 5.47L14.38 5.46L14.35 5.46C13.96 5.46 13.7 5.65 13.55 6.05C13.41 6.42 13.25 6.82 13.07 7.2C12.71 7.96 12.25 8.83 11.59 9.56L11.56 9.59C11.48 9.67 11.4 9.77 11.33 9.77C11.32 9.77 11.31 9.77 11.3 9.77C11.16 9.71 11.07 9.37 11.07 9.21C11.07 9.21 11.07 9.2 11.07 9.2L11.07 6.11C11.07 6.09 11.07 6.08 11.07 6.07C11 5.57 10.86 5.26 10.31 5.15C10.29 5.14 10.28 5.14 10.26 5.14L7.58 5.14C7.14 5.14 6.9 5.33 6.67 5.6C6.61 5.68 6.48 5.83 6.54 6.02C6.61 6.2 6.82 6.24 6.88 6.26C7.22 6.32 7.41 6.54 7.46 6.91C7.56 7.56 7.57 8.25 7.5 9.08C7.48 9.31 7.44 9.49 7.38 9.65C7.37 9.68 7.31 9.8 7.26 9.8C7.24 9.8 7.2 9.79 7.11 9.73C6.9 9.58 6.75 9.37 6.57 9.11C5.96 8.22 5.46 7.25 5.02 6.12C4.85 5.71 4.55 5.48 4.16 5.47C3.73 5.47 3.34 5.46 2.97 5.46C2.56 5.46 2.19 5.47 1.82 5.47C1.51 5.48 1.29 5.58 1.18 5.77C1.06 5.95 1.07 6.2 1.2 6.5C2.23 8.88 3.17 10.61 4.24 12.11C4.99 13.16 5.74 13.89 6.6 14.4C7.51 14.94 8.53 15.2 9.72 15.2C9.85 15.2 9.99 15.2 10.13 15.19C10.82 15.16 11.08 14.9 11.11 14.2C11.13 13.85 11.16 13.47 11.33 13.16C11.44 12.96 11.54 12.96 11.57 12.96C11.63 12.96 11.71 12.99 11.8 13.04C11.95 13.14 12.08 13.28 12.18 13.4C12.28 13.51 12.38 13.63 12.48 13.74C12.69 13.99 12.91 14.24 13.14 14.48C13.64 15.01 14.19 15.24 14.83 15.19L17.2 15.19C17.2 15.19 17.21 15.19 17.21 15.19C17.45 15.18 17.65 15.04 17.77 14.82C17.92 14.55 17.92 14.2 17.77 13.89C17.59 13.54 17.36 13.24 17.16 12.99Z"
                  fill="#7572D5" fill-opacity="1.000000" fill-rule="nonzero"/>
        </g>
    </g>

<!--    кавычки-->
    <g id="quotation">

        <path d="M9.54167 12.8333C9.07708 12.8333 8.63125 12.9042 8.1875 12.9688C8.33125 12.4854 8.47917 11.9938 8.71667 11.5521C8.95417 10.9104 9.325 10.3542 9.69375 9.79375C10.0021 9.1875 10.5458 8.77709 10.9458 8.25834C11.3646 7.75417 11.9354 7.41875 12.3875 7C12.8312 6.5625 13.4125 6.34375 13.875 6.03542C14.3583 5.75834 14.7792 5.45209 15.2292 5.30625L16.3521 4.84375L17.3396 4.43334L16.3292 0.395836L15.0854 0.695835C14.6875 0.795835 14.2021 0.912502 13.65 1.05209C13.0854 1.15625 12.4833 1.44167 11.8125 1.70209C11.15 1.99792 10.3833 2.19792 9.67083 2.67292C8.95417 3.12709 8.12708 3.50625 7.39791 4.11459C6.69166 4.74167 5.83958 5.28542 5.21041 6.08334C4.52291 6.82917 3.84375 7.6125 3.31666 8.50417C2.70625 9.35417 2.29166 10.2875 1.85416 11.2104C1.45833 12.1333 1.13958 13.0771 0.879164 13.9938C0.385414 15.8313 0.164581 17.5771 0.079164 19.0708C0.0083307 20.5667 0.0499974 21.8104 0.137497 22.7104C0.168747 23.1354 0.227081 23.5479 0.268748 23.8333L0.320831 24.1833L0.374997 24.1708C0.745541 25.9017 1.59855 27.4924 2.83534 28.7587C4.07213 30.0251 5.64217 30.9154 7.36383 31.3267C9.08549 31.738 10.8884 31.6535 12.5641 31.083C14.2397 30.5124 15.7196 29.4792 16.8325 28.1027C17.9454 26.7262 18.6459 25.0628 18.853 23.3048C19.06 21.5468 18.7651 19.7662 18.0024 18.1688C17.2396 16.5714 16.0403 15.2226 14.543 14.2784C13.0458 13.3342 11.3118 12.8332 9.54167 12.8333ZM32.4583 12.8333C31.9937 12.8333 31.5479 12.9042 31.1042 12.9688C31.2479 12.4854 31.3958 11.9938 31.6333 11.5521C31.8708 10.9104 32.2417 10.3542 32.6104 9.79375C32.9188 9.1875 33.4625 8.77709 33.8625 8.25834C34.2812 7.75417 34.8521 7.41875 35.3042 7C35.7479 6.5625 36.3292 6.34375 36.7917 6.03542C37.275 5.75834 37.6958 5.45209 38.1458 5.30625L39.2687 4.84375L40.2562 4.43334L39.2458 0.395836L38.0021 0.695835C37.6042 0.795835 37.1187 0.912502 36.5667 1.05209C36.0021 1.15625 35.4 1.44167 34.7292 1.70209C34.0688 2 33.3 2.19792 32.5875 2.675C31.8708 3.12917 31.0438 3.50834 30.3146 4.11667C29.6083 4.74375 28.7562 5.2875 28.1271 6.08334C27.4396 6.82917 26.7604 7.6125 26.2333 8.50417C25.6229 9.35417 25.2083 10.2875 24.7708 11.2104C24.375 12.1333 24.0562 13.0771 23.7958 13.9938C23.3021 15.8313 23.0812 17.5771 22.9958 19.0708C22.925 20.5667 22.9667 21.8104 23.0542 22.7104C23.0854 23.1354 23.1437 23.5479 23.1854 23.8333L23.2375 24.1833L23.2917 24.1708C23.6622 25.9017 24.5152 27.4924 25.752 28.7587C26.9888 30.0251 28.5588 30.9154 30.2805 31.3267C32.0022 31.738 33.8051 31.6535 35.4807 31.083C37.1564 30.5124 38.6363 29.4792 39.7492 28.1027C40.8621 26.7262 41.5626 25.0628 41.7696 23.3048C41.9766 21.5468 41.6817 19.7662 40.919 18.1688C40.1563 16.5714 38.957 15.2226 37.4597 14.2784C35.9624 13.3342 34.2284 12.8332 32.4583 12.8333Z" fill="#7572D5"/>
    </g>

<!--    стрелочка -->

    <g id="arrow">

        <path d="M6.80722 4.2806V15H9.19278V4.2806L14.3134 9.08118L16 7.5L8 0L0 7.5L1.6866 9.08118L6.80722 4.2806Z" fill="white"/>

    </g>

<!--    меню-->

    <g id="menu">

        <path d="M13.32 20H36V17.7778H13.32V20ZM0 11.1111H36V8.88889H0V11.1111ZM0 2.22222H36V0H0V2.22222Z" fill="white"/>

    </g>
</svg>
